<svg xmlns="http://www.w3.org/2000/svg" xmlns:xlink="http://www.w3.org/1999/xlink" width="1024" zoomAndPan="magnify" viewBox="0 0 768 187.499995" height="250" preserveAspectRatio="xMidYMid meet" version="1.0"><defs><g/><clipPath id="65f747de9d"><rect x="0" width="437" y="0" height="106"/></clipPath><clipPath id="b6ca11befb"><rect x="0" width="203" y="0" height="187"/></clipPath></defs><g transform="matrix(1, 0, 0, 1, 287, 40)"><g clip-path="url(#65f747de9d)"><g fill="#ffffff" fill-opacity="1"><g transform="translate(0.870054, 85.704881)"><g><path d="M 2.390625 0 L 2.390625 -61.984375 L 78.671875 -61.984375 L 78.671875 0 L 59.59375 0 L 59.59375 -47.671875 L 50.0625 -47.671875 L 50.0625 0 L 30.984375 4.765625 L 30.984375 -47.671875 L 21.453125 -47.671875 L 21.453125 0 Z M 2.390625 0 "/></g></g></g><g fill="#ffffff" fill-opacity="1"><g transform="translate(91.676151, 85.704881)"><g><path d="M 2.390625 -81.046875 L 21.453125 -81.046875 L 21.453125 -66.75 L 2.390625 -66.75 Z M 2.390625 0 L 2.390625 -61.984375 L 21.453125 -61.984375 L 21.453125 0 Z M 2.390625 0 "/></g></g></g><g fill="#ffffff" fill-opacity="1"><g transform="translate(125.275737, 85.704881)"><g><path d="M 50.0625 -30.984375 L 50.0625 0 L 2.390625 0 L 2.390625 -61.984375 L 50.0625 -61.984375 L 50.0625 -35.75 L 30.984375 -30.984375 Z M 30.984375 -38.140625 L 30.984375 -47.671875 L 21.453125 -47.671875 L 21.453125 -38.140625 Z M 30.984375 -23.84375 L 21.453125 -23.84375 L 21.453125 -14.296875 L 30.984375 -14.296875 Z M 30.984375 -23.84375 "/></g></g></g><g fill="#ffffff" fill-opacity="1"><g transform="translate(187.478579, 85.704881)"><g><path d="M 50.0625 -47.671875 L 21.453125 -47.671875 L 21.453125 -14.296875 L 50.0625 -14.296875 L 50.0625 0 L 2.390625 0 L 2.390625 -61.984375 L 50.0625 -61.984375 Z M 50.0625 -23.84375 L 26.21875 -23.84375 L 26.21875 -38.140625 L 50.0625 -38.140625 Z M 50.0625 -23.84375 "/></g></g></g><g fill="#ffffff" fill-opacity="1"><g transform="translate(249.68142, 85.704881)"><g><path d="M 50.0625 -47.671875 L 30.984375 -42.90625 L 30.984375 -47.671875 L 21.453125 -47.671875 L 21.453125 -38.140625 L 50.0625 -38.140625 L 50.0625 0 L 2.390625 0 L 2.390625 -14.296875 L 21.453125 -19.078125 L 21.453125 -14.296875 L 30.984375 -14.296875 L 30.984375 -23.84375 L 2.390625 -23.84375 L 2.390625 -61.984375 L 50.0625 -61.984375 Z M 50.0625 -47.671875 "/></g></g></g><g fill="#ffffff" fill-opacity="1"><g transform="translate(311.884248, 85.704881)"><g><path d="M 50.0625 -47.671875 L 30.984375 -42.90625 L 30.984375 -47.671875 L 21.453125 -47.671875 L 21.453125 -38.140625 L 50.0625 -38.140625 L 50.0625 0 L 2.390625 0 L 2.390625 -14.296875 L 21.453125 -19.078125 L 21.453125 -14.296875 L 30.984375 -14.296875 L 30.984375 -23.84375 L 2.390625 -23.84375 L 2.390625 -61.984375 L 50.0625 -61.984375 Z M 50.0625 -47.671875 "/></g></g></g><g fill="#ffffff" fill-opacity="1"><g transform="translate(374.087103, 85.704881)"><g><path d="M 2.390625 0 L 50.0625 0 L 50.0625 14.296875 L 2.390625 14.296875 Z M 2.390625 0 "/></g></g></g></g></g><g transform="matrix(1, 0, 0, 1, 27, 0)"><g clip-path="url(#b6ca11befb)"><g fill="#ffffff" fill-opacity="1"><g transform="translate(10.901187, 157.197629)"><g><path d="M 5.234375 0 L 5.234375 -136.203125 L 172.875 -136.203125 L 172.875 0 L 130.96875 0 L 130.96875 -104.78125 L 110.015625 -104.78125 L 110.015625 0 L 68.109375 10.484375 L 68.109375 -104.78125 L 47.15625 -104.78125 L 47.15625 0 Z M 5.234375 0 "/></g></g></g></g></g></svg>